<svg xmlns="http://www.w3.org/2000/svg" xmlns:xlink="http://www.w3.org/1999/xlink" width="500" zoomAndPan="magnify" viewBox="0 0 375 374.999991" height="500" preserveAspectRatio="xMidYMid meet" version="1.0"><defs><g/></defs><rect x="-37.5" width="450" fill="#ffffff" y="-37.499999" height="449.999989" fill-opacity="1"/><rect x="-37.5" width="450" fill="#324370" y="-37.499999" height="449.999989" fill-opacity="1"/><g fill="#ffffff" fill-opacity="1"><g transform="translate(27.506677, 211.874986)"><g><path d="M 12.359375 -0.453125 C 8.003906 -1.816406 5.003906 -4.3125 3.359375 -7.9375 C 1.710938 -11.5625 1.550781 -16.253906 2.875 -22.015625 C 4.195312 -27.773438 6.519531 -32.46875 9.84375 -36.09375 C 13.175781 -39.71875 17.34375 -42.210938 22.34375 -43.578125 Z M 27.578125 -34.109375 L 30.015625 -44.796875 L 31.875 -44.796875 C 39.46875 -44.796875 44.882812 -42.851562 48.125 -38.96875 C 51.363281 -35.09375 52.128906 -29.441406 50.421875 -22.015625 C 48.722656 -14.585938 45.351562 -8.929688 40.3125 -5.046875 C 35.28125 -1.171875 28.96875 0.765625 21.375 0.765625 C 20.519531 0.765625 19.898438 0.742188 19.515625 0.703125 L 21.953125 -9.921875 C 22.722656 -9.835938 23.34375 -9.796875 23.8125 -9.796875 C 26.84375 -9.796875 29.367188 -10.710938 31.390625 -12.546875 C 33.421875 -14.378906 34.796875 -16.851562 35.515625 -19.96875 L 36.421875 -24.0625 C 37.140625 -27.175781 36.910156 -29.648438 35.734375 -31.484375 C 34.566406 -33.316406 32.46875 -34.234375 29.4375 -34.234375 C 28.96875 -34.234375 28.347656 -34.191406 27.578125 -34.109375 Z M 27.578125 -34.109375 "/></g></g></g><g fill="#ffffff" fill-opacity="1"><g transform="translate(80.815405, 211.874986)"><g><path d="M 31.171875 -34.5625 C 28.816406 -34.5625 26.363281 -34.003906 23.8125 -32.890625 L 21.953125 -24.890625 C 22.460938 -25.066406 23.0625 -25.15625 23.75 -25.15625 C 25.15625 -25.15625 26.125 -24.71875 26.65625 -23.84375 C 27.1875 -22.96875 27.28125 -21.804688 26.9375 -20.359375 L 22.265625 0 L 35 0 L 40.0625 -21.890625 C 41 -25.984375 40.726562 -29.117188 39.25 -31.296875 C 37.78125 -33.472656 35.085938 -34.5625 31.171875 -34.5625 Z M 17.28125 -19.96875 L 17.796875 -28.671875 L 18.171875 -33.796875 L 7.75 -33.796875 L -0.0625 0 L 12.671875 0 L 17.21875 -19.84375 Z M 17.28125 -19.96875 "/></g></g></g><g fill="#ffffff" fill-opacity="1"><g transform="translate(123.500788, 211.874986)"><g><path d="M 19.515625 -33.796875 L 11.703125 0 L -1.03125 0 L 6.78125 -33.796875 Z M 22.46875 -46.40625 L 20.484375 -37.765625 L 7.75 -37.765625 L 9.71875 -46.40625 Z M 22.46875 -46.40625 "/></g></g></g><g fill="#ffffff" fill-opacity="1"><g transform="translate(144.811483, 211.874986)"><g><path d="M 45.5625 -33.796875 L 29.953125 -17.59375 L 38.53125 0 L 23.671875 0 L 19.703125 -10.625 L 19.453125 -10.625 L 10.5625 0 L -3.578125 0 L 13.5625 -17.921875 L 5.5 -33.796875 L 20.484375 -33.796875 L 23.8125 -24.828125 L 24.0625 -24.828125 L 31.484375 -33.796875 Z M 45.5625 -33.796875 "/></g></g></g><g fill="#ffffff" fill-opacity="1"><g transform="translate(187.496867, 211.874986)"><g><path d="M 24 -44.03125 L 13.890625 0 L -0.25 0 L 9.859375 -44.03125 Z M 29.25 -34.375 L 31.421875 -44.03125 L 39.171875 -44.03125 C 42.578125 -44.03125 45.21875 -43.003906 47.09375 -40.953125 C 48.976562 -38.910156 49.554688 -36.332031 48.828125 -33.21875 C 47.585938 -27.800781 44.347656 -24.382812 39.109375 -22.96875 L 39.109375 -22.71875 C 44.390625 -21.4375 46.328125 -17.769531 44.921875 -11.71875 C 44.109375 -8.257812 42.21875 -5.441406 39.25 -3.265625 C 36.289062 -1.085938 33.019531 0 29.4375 0 L 21.3125 0 L 23.671875 -10.234375 L 27 -10.234375 C 27.601562 -10.234375 28.179688 -10.382812 28.734375 -10.6875 C 29.285156 -10.988281 29.765625 -11.40625 30.171875 -11.9375 C 30.578125 -12.46875 30.863281 -13.054688 31.03125 -13.703125 L 31.171875 -14.34375 C 31.421875 -15.320312 31.300781 -16.140625 30.8125 -16.796875 C 30.320312 -17.460938 29.628906 -17.796875 28.734375 -17.796875 L 25.40625 -17.796875 L 27.515625 -26.875 L 29.828125 -26.875 C 30.722656 -26.875 31.5625 -27.203125 32.34375 -27.859375 C 33.132812 -28.523438 33.640625 -29.351562 33.859375 -30.34375 L 33.984375 -30.96875 C 34.191406 -31.914062 34.0625 -32.71875 33.59375 -33.375 C 33.125 -34.039062 32.441406 -34.375 31.546875 -34.375 Z M 29.25 -34.375 "/></g></g></g><g fill="#ffffff" fill-opacity="1"><g transform="translate(237.285815, 211.874986)"><g><path d="M 44.609375 -33.796875 L 25.015625 -1.03125 C 24.847656 -0.769531 24.703125 -0.507812 24.578125 -0.25 L 23.671875 -16.890625 L 32.0625 -33.796875 Z M 21.25 4.609375 C 19.03125 7.460938 16.585938 9.644531 13.921875 11.15625 C 11.253906 12.675781 8.148438 13.4375 4.609375 13.4375 C 1.835938 13.4375 -0.53125 13.050781 -2.5 12.28125 L -0.765625 4.671875 L 4.34375 4.671875 C 7.550781 4.671875 9.816406 3.113281 11.140625 0 L 5.5 -33.796875 L 19.203125 -33.796875 Z M 21.25 4.609375 "/></g></g></g><g fill="#ffffff" fill-opacity="1"><g transform="translate(276.387414, 211.874986)"><g><path d="M 24.390625 -44.03125 L 22.015625 -33.796875 L 29.1875 -33.796875 L 27.203125 -25.15625 L 20.03125 -25.15625 L 17.03125 -12.28125 C 16.644531 -10.832031 16.628906 -9.734375 16.984375 -8.984375 C 17.347656 -8.242188 18.210938 -7.875 19.578125 -7.875 L 23.171875 -7.875 L 21.4375 -0.390625 C 18.96875 0.378906 16.148438 0.765625 12.984375 0.765625 C 9.273438 0.765625 6.554688 0.0820312 4.828125 -1.28125 C 3.097656 -2.644531 2.617188 -4.96875 3.390625 -8.25 L 7.296875 -25.15625 L 2.5625 -25.15625 L 4.546875 -33.796875 L 9.796875 -33.796875 L 14.90625 -44.03125 Z M 24.390625 -44.03125 "/></g></g></g><g fill="#ffffff" fill-opacity="1"><g transform="translate(304.801673, 211.874986)"><g><path d="M 25.40625 -34.5625 C 38.125 -34.5625 43.117188 -28.671875 40.390625 -16.890625 L 39.875 -14.71875 L 18.109375 -14.71875 L 19.515625 -20.734375 L 28.421875 -20.734375 C 28.796875 -22.484375 28.597656 -23.867188 27.828125 -24.890625 C 27.066406 -25.921875 25.789062 -26.4375 24 -26.4375 C 22.84375 -26.4375 21.753906 -26.265625 20.734375 -25.921875 L 22.65625 -34.4375 C 23.894531 -34.519531 24.8125 -34.5625 25.40625 -34.5625 Z M 18.9375 -33.921875 L 14.53125 -14.71875 C 13.414062 -9.8125 15.117188 -7.359375 19.640625 -7.359375 C 21.773438 -7.359375 23.441406 -7.804688 24.640625 -8.703125 C 25.835938 -9.597656 26.601562 -10.789062 26.9375 -12.28125 L 39.296875 -12.28125 C 38.359375 -8.1875 36.0625 -4.988281 32.40625 -2.6875 C 28.757812 -0.382812 23.953125 0.765625 17.984375 0.765625 C 11.710938 0.765625 7.1875 -0.691406 4.40625 -3.609375 C 1.632812 -6.535156 0.929688 -10.960938 2.296875 -16.890625 C 3.367188 -21.546875 5.351562 -25.3125 8.25 -28.1875 C 11.15625 -31.070312 14.71875 -32.984375 18.9375 -33.921875 Z M 18.9375 -33.921875 "/></g></g></g></svg>